<svg width="553" height="81" viewBox="0 0 553 81" fill="none" xmlns="http://www.w3.org/2000/svg">
<path opacity="0.5" d="M0 78L5 80.8867V75.1133L0 78ZM4.5 78.5H5.93182V77.5H4.5V78.5ZM17.7955 78.5H29.6591V77.5H17.7955V78.5ZM41.5227 78.5H53.3864V77.5H41.5227V78.5ZM65.25 78.5H77.1136V77.5H65.25V78.5ZM88.9773 78.5H100.841V77.5H88.9773V78.5ZM112.705 78.5H124.568V77.5H112.705V78.5ZM136.432 78.5H148.295V77.5H136.432V78.5ZM160.159 78.5H172.023V77.5H160.159V78.5ZM183.886 78.5H195.75V77.5H183.886V78.5ZM207.614 78.5H219.477V77.5H207.614V78.5ZM231.341 78.5H243.204V77.5H231.341V78.5ZM255.068 78.5H266.932V77.5H255.068V78.5ZM278.795 78.5H290.659V77.5H278.795V78.5ZM302.523 78.5H314.386V77.5H302.523V78.5ZM326.25 78.5H338.114V77.5H326.25V78.5ZM349.977 78.5H361.841V77.5H349.977V78.5ZM373.705 78.5H385.568V77.5H373.705V78.5ZM397.432 78.5H409.296V77.5H397.432V78.5ZM421.159 78.5H433.023V77.5H421.159V78.5ZM444.886 78.5H456.75V77.5H444.886V78.5ZM468.614 78.5H480.477V77.5H468.614V78.5ZM492.341 78.5H504.205V77.5H492.341V78.5ZM516.068 78.5H522V77.5H516.068V78.5ZM522 78.5C524.036 78.5 526.026 78.3004 527.952 77.9195L527.758 76.9385C525.896 77.3068 523.971 77.5 522 77.5V78.5ZM538.947 73.3624C542.272 71.1358 545.136 68.2725 547.362 64.9466L546.531 64.3903C544.378 67.6075 541.608 70.3776 538.39 72.5315L538.947 73.3624ZM551.919 53.9519C552.3 52.0265 552.5 50.0363 552.5 48H551.5C551.5 49.9708 551.307 51.896 550.938 53.7578L551.919 53.9519ZM552.5 48V42H551.5V48H552.5ZM552.5 30V18H551.5V30H552.5ZM552.5 6V0H551.5V6H552.5Z" fill="#BABABA"/>
</svg>
    