<svg width="80" height="80" viewBox="0 0 80 80" fill="none" xmlns="http://www.w3.org/2000/svg">
<path d="M27.775 34.1406H31V37.3656C31 37.45 31.0844 37.5156 31.1875 37.5156H33.4375C33.5406 37.5156 33.625 37.45 33.625 37.3609V34.1406H36.85C36.9344 34.1406 37 34.0562 37 33.9531V31.7031C37 31.6 36.9344 31.5156 36.8453 31.5156H33.625V28.2906C33.625 28.2063 33.5406 28.1406 33.4375 28.1406H31.1875C31.0844 28.1406 31 28.2063 31 28.2906V31.5156H27.775C27.6906 31.5156 27.625 31.6 27.625 31.7031V33.9531C27.625 34.0562 27.6906 34.1406 27.775 34.1406ZM43.15 34.1406H52.225C52.3094 34.1406 52.375 34.0562 52.375 33.9531V31.7031C52.375 31.6 52.3094 31.5156 52.2203 31.5156H43.15C43.0656 31.5156 43 31.6 43 31.7031V33.9531C43 34.0562 43.0656 34.1406 43.15 34.1406ZM43.15 46.5625H52.225C52.3094 46.5625 52.375 46.4781 52.375 46.375V44.125C52.375 44.0219 52.3094 43.9375 52.2203 43.9375H43.15C43.0656 43.9375 43 44.0219 43 44.125V46.375C43 46.4781 43.0656 46.5625 43.15 46.5625ZM43.15 51.4375H52.225C52.3094 51.4375 52.375 51.3531 52.375 51.25V49C52.375 48.8969 52.3094 48.8125 52.2203 48.8125H43.15C43.0656 48.8125 43 48.8969 43 49V51.25C43 51.3531 43.0656 51.4375 43.15 51.4375ZM33.9766 47.6406L36.8453 44.1297C37.0469 43.8859 36.8781 43.5156 36.5687 43.5156H34.1875C34.0797 43.5156 33.9766 43.5625 33.9109 43.6516L32.3172 45.6016L30.7234 43.6516C30.6899 43.6103 30.6478 43.5767 30.6001 43.5532C30.5523 43.5298 30.5001 43.5169 30.4469 43.5156H28.0609C27.7516 43.5156 27.5828 43.8859 27.7844 44.1297L30.6531 47.6406L27.7141 51.2406C27.5078 51.4844 27.6766 51.8547 27.9859 51.8547H30.3672C30.475 51.8547 30.5781 51.8078 30.6437 51.7188L32.3078 49.6797L33.9719 51.7188C34.0422 51.8031 34.1453 51.8547 34.2484 51.8547H36.6297C36.9391 51.8547 37.1078 51.4844 36.9062 51.2406L33.9766 47.6406ZM57.25 21.25H22.75C21.9203 21.25 21.25 21.9203 21.25 22.75V57.25C21.25 58.0797 21.9203 58.75 22.75 58.75H57.25C58.0797 58.75 58.75 58.0797 58.75 57.25V22.75C58.75 21.9203 58.0797 21.25 57.25 21.25ZM55.5625 55.5625H24.4375V24.4375H55.5625V55.5625Z" fill="#E64345"/>
<circle cx="40" cy="40" r="39.5" stroke="#E9E9E9"/>
<mask id="path-3-inside-1_11_44" fill="white">
<path d="M40 -1.74846e-06C45.2529 -2.43729e-06 50.4543 1.03463 55.3073 3.04482C60.1604 5.055 64.5699 8.00138 68.2843 11.7157C71.9986 15.4301 74.945 19.8396 76.9552 24.6927C78.9654 29.5457 80 34.7471 80 40L77.9569 40C77.9569 35.0154 76.9752 30.0797 75.0676 25.4745C73.1601 20.8694 70.3642 16.685 66.8396 13.1604C63.315 9.63576 59.1306 6.83987 54.5255 4.93236C49.9203 3.02485 44.9846 2.04306 40 2.04306L40 -1.74846e-06Z"/>
</mask>
<path d="M40 -1.74846e-06C45.2529 -2.43729e-06 50.4543 1.03463 55.3073 3.04482C60.1604 5.055 64.5699 8.00138 68.2843 11.7157C71.9986 15.4301 74.945 19.8396 76.9552 24.6927C78.9654 29.5457 80 34.7471 80 40L77.9569 40C77.9569 35.0154 76.9752 30.0797 75.0676 25.4745C73.1601 20.8694 70.3642 16.685 66.8396 13.1604C63.315 9.63576 59.1306 6.83987 54.5255 4.93236C49.9203 3.02485 44.9846 2.04306 40 2.04306L40 -1.74846e-06Z" stroke="#747474" stroke-width="2" mask="url(#path-3-inside-1_11_44)"/>
</svg>
