<svg width="20" height="20" viewBox="0 0 20 20" fill="none" xmlns="http://www.w3.org/2000/svg">
<path d="M19.722 16.6307L16.9022 19.4279C16.486 19.8547 15.9342 19.9993 15.3969 20C13.0207 19.9288 10.7747 18.7616 8.93058 17.5631C5.90355 15.3609 3.12611 12.6303 1.38295 9.33053C0.714381 7.94681 -0.0700857 6.1813 0.00486426 4.63681C0.0115476 4.05581 0.168114 3.4856 0.577298 3.1111L3.39706 0.292748C3.9826 -0.205302 4.54885 -0.0331024 4.92355 0.547031L7.19206 4.84873C7.43083 5.35835 7.29386 5.90438 6.93763 6.26853L5.89876 7.30686C5.83463 7.39471 5.7938 7.49471 5.79276 7.60355C6.19113 9.14558 7.39798 10.5669 8.46411 11.545C9.53023 12.5231 10.6762 13.8483 12.1637 14.162C12.3476 14.2133 12.5728 14.2313 12.7044 14.109L13.9129 12.88C14.3295 12.5642 14.931 12.4099 15.3757 12.6681H15.3969L19.4887 15.0838C20.0894 15.4603 20.1521 16.188 19.722 16.6307Z" fill="#393939"/>
</svg>
